<svg width="46" height="36" xmlns="http://www.w3.org/2000/svg"><path
    fill="#1B91FF"
    d="M46 0v.416c-.016.066-.043.132-.048.199-.14 1.834-.278 3.67-.415 5.504l-.552 7.429a14031.382 14031.382 0 0 0-1.201 15.832c-.045.585-.053.576-.64.667-3.13.487-6.26.977-9.389 1.468-.48.075-.961.145-1.471.221L31.277 10.47l-.313.06-1.062 21.585-11.443 1.791-2.255-29.244 7.251-1.134.95 21.274c.225.034.325-.03.337-.26.073-1.473.158-2.945.24-4.417l.373-6.758.451-8.031c.041-.728.085-1.455.128-2.197l10.34-1.618 1.212 21.25.313-.045.95-21.593L46 0zM15.59 15.688L8.426 16.81v-.323-3.622c0-.119.005-.239-.011-.356-.033-.234-.098-.467-.376-.498-.274-.03-.515.079-.62.348-.07.179-.102.383-.103.577-.01 1.078.009 2.158-.01 3.236-.012.667.276 1.144.859 1.386.482.2 1.002.32 1.515.428 1.142.238 2.252.563 3.339.997 1.38.553 2.149 1.6 2.497 3.002.111.45.171.913.178 1.378a131.7 131.7 0 0 1 .001 4.662c-.036 1.705-.433 3.31-1.503 4.683-.98 1.257-2.294 2.013-3.77 2.503-1.76.584-3.573.88-5.428.765a7.204 7.204 0 0 1-1.862-.365c-1.677-.573-2.539-1.87-2.857-3.567a11.338 11.338 0 0 1-.178-1.856c-.026-1.346-.01-2.692-.009-4.038 0-.078.007-.156.012-.256l7.142-1.119V28.68c0 .118 0 .237.006.356.012.244.085.451.353.514.254.06.559-.08.65-.337.069-.19.1-.404.102-.608.01-1.069-.003-2.137.007-3.207.006-.635-.254-1.12-.835-1.333-.676-.248-1.377-.433-2.078-.603-.971-.235-1.924-.507-2.843-.914-1.423-.63-2.138-1.785-2.453-3.256a3.336 3.336 0 0 1-.085-.676c-.013-2.175-.203-4.357.128-6.519.403-2.63 1.916-4.412 4.324-5.407 2.122-.877 4.34-1.246 6.63-1.041 2.424.216 3.995 1.743 4.314 4.21.098.762.11 1.538.123 2.308.02 1.166.005 2.333.005 3.52z"
  /></svg>
