<svg width="48" height="36" xmlns="http://www.w3.org/2000/svg"> 
<g fill="#fff" fill-rule="nonzero"> <path d="M48 0v.422c-.017.068-.045.134-.05.202-.146 1.864-.29 3.728-.433 5.592a15709.4 15709.4 0 00-.576 7.547c-.214 2.766-.43 5.531-.65 8.297l-.604 7.786c-.046.595-.055.585-.668.678-3.266.495-6.531.992-9.796 1.492-.502.076-1.004.146-1.535.224l-1.051-21.604-.326.062-1.109 21.927-11.94 1.82-2.353-29.71 7.566-1.15.992 21.61c.234.035.338-.03.35-.264.077-1.496.166-2.991.25-4.487l.39-6.864.471-8.16c.043-.739.089-1.478.134-2.23l10.79-1.645 1.264 21.588.326-.046.992-21.936L48 0zM16.268 15.937l-7.476 1.14v-.328-3.68c0-.12.006-.243-.011-.361-.034-.238-.103-.475-.392-.506-.286-.03-.537.08-.647.354a1.638 1.638 0 00-.108.585c-.01 1.096.01 2.192-.01 3.288-.013.677.288 1.162.896 1.407.503.203 1.046.327 1.581.436 1.191.242 2.35.571 3.484 1.013 1.44.56 2.242 1.624 2.605 3.049.117.458.18.928.187 1.4.022 1.578.036 3.158 0 4.735-.037 1.733-.45 3.364-1.568 4.758-1.023 1.277-2.394 2.045-3.933 2.542-1.838.594-3.73.896-5.665.778a7.701 7.701 0 01-1.943-.37c-1.75-.583-2.649-1.9-2.98-3.625A11.22 11.22 0 01.1 30.667C.074 29.3.091 27.932.092 26.565c0-.08.007-.159.012-.26l7.453-1.136v3.966c0 .12 0 .241.006.362.013.248.089.458.369.523.265.06.583-.082.679-.344.07-.193.103-.41.105-.616.01-1.086-.003-2.172.007-3.258.007-.646-.265-1.138-.87-1.355-.706-.252-1.438-.44-2.17-.612-1.012-.239-2.007-.516-2.965-.93-1.485-.639-2.232-1.813-2.56-3.307a3.306 3.306 0 01-.09-.687c-.013-2.209-.211-4.426.135-6.622.42-2.671 1.999-4.482 4.511-5.493 2.214-.891 4.528-1.265 6.92-1.058 2.528.22 4.167 1.772 4.5 4.278.103.773.116 1.562.129 2.344.02 1.185.005 2.37.005 3.577z"></path> </g> </svg>