<svg width="18" height="16">
<path
    d="M8.6 1.524c-1.85 0-3.35 1.523-3.35 3.403 0 1.88 1.5 3.403 3.35 3.403s3.35-1.523 3.35-3.403c0-1.88-1.5-3.403-3.35-3.403zM3.75 4.927C3.75 2.206 5.921 0 8.6 0s4.85 2.206 4.85 4.927c0 2.721-2.171 4.927-4.85 4.927S3.75 7.648 3.75 4.927z"
    fill="#FF9B04"
  />
<path
    fill-rule="evenodd"
    clip-rule="evenodd"
    d="M1.5 14.877c0-3.307 3.134-5.988 7-5.988s7 2.68 7 5.988c0 0-3.134 1.123-7 1.123s-7-1.123-7-1.123zm12.325-1.093c-.583-1.813-2.578-3.371-5.325-3.371-2.747 0-4.742 1.558-5.325 3.371a21.746 21.746 0 0 0 5.325.692 21.747 21.747 0 0 0 5.325-.692z"
    fill="#FF9B04"
  /></svg>
